<?xml version="1.0" standalone="no"?><!DOCTYPE svg PUBLIC "-//W3C//DTD SVG 1.1//EN" "http://www.w3.org/Graphics/SVG/1.1/DTD/svg11.dtd"><svg t="1525185768973" class="icon" style="" viewBox="0 0 1084 1024" version="1.1" xmlns="http://www.w3.org/2000/svg" p-id="7572" xmlns:xlink="http://www.w3.org/1999/xlink" width="67.75" height="64"><defs><style type="text/css"></style></defs><path d="M421.647059 542.117647v481.882353h662.588235V542.117647H421.647059z m602.352941 421.647059h-542.117647V602.352941h542.117647v361.411765z" p-id="7573"></path><path d="M975.811765 789.082353L849.317647 662.588235l-42.164706 42.164706 84.329412 84.329412 42.164706 42.164706zM710.354824 876.182588l-42.586353 42.586353-85.172706-85.172706 42.586353-42.646588zM626.447059 789.082353l84.329412-84.329412-42.164706-42.164706-126.494118 126.494118 42.164706 42.164706zM933.948235 833.234824l-85.172706 85.232941-42.586353-42.646589 85.172706-85.172705zM783.058824 240.941176c0-132.517647-108.423529-240.941176-240.941177-240.941176S301.176471 108.423529 301.176471 240.941176s108.423529 240.941176 240.941176 240.941177 240.941176-108.423529 240.941177-240.941177z m-421.647059 6.02353c0-102.4 78.305882-180.705882 180.705882-180.705882s180.705882 78.305882 180.705882 180.705882-78.305882 180.705882-180.705882 180.705882c-96.376471 0-180.705882-84.329412-180.705882-180.705882zM325.270588 481.882353C132.517647 536.094118 0 716.8 0 915.576471c0 18.070588 18.070588 30.117647 36.141176 30.117647s36.141176-12.047059 36.141177-30.117647C66.258824 740.894118 180.705882 590.305882 343.341176 542.117647c18.070588-6.023529 30.117647-24.094118 24.094118-42.164706-6.023529-12.047059-24.094118-24.094118-42.164706-18.070588z" p-id="7574"></path></svg>