<?xml version="1.0" standalone="no"?><!DOCTYPE svg PUBLIC "-//W3C//DTD SVG 1.1//EN" "http://www.w3.org/Graphics/SVG/1.1/DTD/svg11.dtd"><svg t="1527078930819" class="icon" style="" viewBox="0 0 1024 1024" version="1.1" xmlns="http://www.w3.org/2000/svg" p-id="9295" xmlns:xlink="http://www.w3.org/1999/xlink" width="64" height="64"><defs><style type="text/css"></style></defs><path d="M192.08508045 62.18674063h628.02089911c61.66413752 0 111.64815985 49.98402233 111.64815985 111.64815985v669.88895905c0 61.66413752-49.98402233 111.64815985-111.64815985 111.64815984H192.08508045c-61.66413752 0-111.64815985-49.98402233-111.64815985-111.64815984V173.83490048c0-61.66413752 49.98402233-111.64815985 111.64815985-111.64815985z" fill="#FF8351" p-id="9296"></path><path d="M206.04110043 173.83490048h320.98845955a83.73611987 83.73611987 0 0 1 83.73611988 83.73611987v502.4167193a83.73611987 83.73611987 0 0 1-83.73611988 83.73611988H206.04110043a83.73611987 83.73611987 0 0 1-83.73611988-83.73611988V257.57102035a83.73611987 83.73611987 0 0 1 83.73611988-83.73611987zM764.28189964 173.83490048h13.95601998c61.66413752 0 111.64815985 49.98402233 111.64815985 111.64815984v432.63661939c0 61.66413752-49.98402233 111.64815985-111.64815985 111.64815983h-13.95601998c-61.66413752 0-111.64815985-49.98402233-111.64815984-111.64815983V285.48306032c0-61.66413752 49.98402233-111.64815985 111.64815984-111.64815984z" fill="#CD6C45" p-id="9297"></path><path d="M652.6337398 285.48306032c0-61.66413752 49.98402233-111.64815985 111.64815984-111.64815984h13.95601998c61.66413752 0 111.64815985 49.98402233 111.64815985 111.64815984v41.86805994H652.6337398v-41.86805994z" fill="#CD6C45" p-id="9298"></path><path d="M722.41383971 411.08724014h97.69213985a27.91203995 27.91203995 0 1 1 0 55.82407992h-97.69213985a27.91203995 27.91203995 0 1 1 0-55.82407992z" fill="#FFD945" p-id="9299"></path><path d="M178.12906047 704.16365973h362.85651949l-27.91203996 55.82407992H206.04110043l-27.91203996-55.82407992z" fill="#E5E5EF" p-id="9300"></path><path d="M544.20619995 361.7044002H179.20260047l32.20619996-64.4123999h300.59119957l32.20619995 64.4123999z" fill="#FFBB45" p-id="9301"></path><path d="M361.7044002 361.7044002H179.20260047l32.20619996-64.4123999h150.29559977v64.4123999z" fill="#EBA121" p-id="9302"></path><path d="M359.55732022 704.16365973H178.12906047l27.91203996 55.82407992h153.51621979v-55.82407992z" fill="#C2CDE5" p-id="9303"></path><path d="M206.04110043 271.52704034h307.03243957a13.95601998 13.95601998 0 1 1 0 27.91203997H206.04110043a13.95601998 13.95601998 0 1 1 0-27.91203997z" fill="#E5E5EF" p-id="9304"></path><path d="M345.60130024 257.57102035h97.69213985v13.95601999h-97.69213985v-13.95601999z" fill="#C2CDE5" p-id="9305"></path><path d="M179.20260047 361.7044002h365.00359948l-3.22061999 342.45925953H178.12906047L179.20260047 361.7044002z" fill="#FFD945" p-id="9306"></path><path d="M179.20260047 361.7044002h182.50179973l-2.14707998 342.45925953H178.12906047L179.20260047 361.7044002z" fill="#FACF29" p-id="9307"></path><path d="M540.98557996 616.16558605a124.94932043 124.94932043 0 0 1-83.73611989 32.17399375c-69.37215471 0-125.60417983-56.23202512-125.60417982-125.60417982 0-69.37215471 56.23202512-125.60417983 125.60417982-125.60417981 32.21693535 0 61.50310651 12.22762058 83.73611989 32.17399375v186.86037213z" fill="#FFBB45" p-id="9308"></path></svg>