<?xml version="1.0" standalone="no"?><!DOCTYPE svg PUBLIC "-//W3C//DTD SVG 1.1//EN" "http://www.w3.org/Graphics/SVG/1.1/DTD/svg11.dtd"><svg t="1525169962985" class="icon" style="" viewBox="0 0 1041 1024" version="1.1" xmlns="http://www.w3.org/2000/svg" p-id="5001" xmlns:xlink="http://www.w3.org/1999/xlink" width="203.3203125" height="200"><defs><style type="text/css"></style></defs><path d="M989.61851 568.74023l25.663855-7.176149c-21.406818 196.43188-162.375579 371.578572-365.861979 425.703766-203.608029 54.003563-412.811023-25.663856-529.575484-185.120324l25.663856-7.176149C258.016182 941.535099 452.988506 1015.607554 643.703793 964.401473c189.255731-51.206081 323.048343-212.000475 345.914717-395.661243M400.322869 59.112009C591.038156 7.905927 786.01048 80.518826 898.517904 228.542107l25.663856-7.176149C807.417298 62.03112 598.092675-19.095855 394.606276 36.367265 189.66032 90.492458 48.691559 264.057964 27.406371 461.9494l25.663855-7.176149C77.152896 271.234113 209.607582 110.43972 400.322869 59.112009" fill="#4D4D4D" p-id="5002"></path><path d="M179.686689 785.119373l-11.433187 2.797482C276.503888 923.169022 458.7051 990.065328 636.527644 941.656729c179.40373-46.949044 304.560637-196.43188 330.224492-367.199905l-11.433187 2.797482C928.317168 742.305737 807.295669 884.734054 635.068088 930.223542 461.502581 977.294215 285.017963 914.654947 179.686689 785.119373m683.193728-548.063191l11.433187-2.797481C767.522774 99.006533 585.321562 32.110227 406.039462 80.518826 228.095288 128.927426 102.816752 276.950707 77.152896 447.718731l11.433187-2.797481C115.587865 279.748189 236.609364 137.441501 408.836944 91.830384c172.22758-46.949044 348.712199 15.690224 454.043473 145.225798" fill="#4D4D4D" p-id="5003"></path><path d="M313.479301 749.481886l-14.230669 4.257038c79.667419 72.612899 193.634398 103.871719 306.020193 74.072455C717.654619 797.890486 800.241149 713.966029 834.41908 611.432237l-14.230669 4.257037c-34.177931 95.357643-112.507424 173.687136-217.838698 200.688918-105.209645 27.123411-212.000475-1.337926-288.870412-66.896306m415.608504-475.450291l14.230669-4.257037c-79.667419-72.612899-193.634398-103.871719-306.020192-74.072456C324.912488 225.744625 242.325957 311.128638 208.148026 413.540801l14.230669-4.257038c34.177931-95.357643 112.507424-173.687136 217.838698-200.688918 105.209645-27.001782 212.000475-1.459556 288.870412 65.43675M105.614234 780.862335c-21.406818 0-41.23245-14.230669-46.949044-35.637486l-56.922675-210.662549c-7.176149-25.663856 8.514075-52.665637 34.177931-59.841787l886.801758-237.664331c12.771113-2.797482 25.663856-1.459556 36.975413 4.257038 11.433187 7.176149 19.947262 17.028151 22.744744 29.920893l56.922674 210.662549c7.05452 25.663856-8.514075 52.665637-34.17793 59.841787l-886.680129 237.66433c-4.378667 1.459556-8.635705 1.459556-12.892742 1.459556z m831.338639-522.399335c-2.797482 0-4.257038 0-7.17615 1.459556L42.974965 497.586887c-14.230669 4.257038-22.744744 18.487706-18.487706 31.380449L81.409934 739.508255c4.257038 14.230669 18.487706 21.406818 31.258819 18.487707l886.801758-237.664331c14.230669-4.257038 22.744744-18.487706 18.487707-31.25882L961.035543 278.410263c-1.459556-7.176149-5.716593-12.771113-11.433187-15.690225-4.135408-2.919112-8.392446-4.257038-12.649483-4.257038z m0 0" fill="#4D4D4D" p-id="5004"></path><path d="M291.221075 513.398741c-0.851408 0.243259-6.93289 2.310963-18.366076 6.203112-0.608148-3.892149-1.094667-6.568001-1.459556-8.027557-0.486519-1.459556-1.581185-4.135408-3.040741-8.149186 10.095261-2.067704 19.339114-4.257038 27.4883-6.568001l76.140159-21.163559c6.081482-1.824445 12.284594-3.892149 18.244447-5.959852 0.608148 3.892149 1.337926 7.419408 2.189334 10.460149l13.86578 50.233045c0.851408 2.797482 3.040741 9.487112 6.68963 19.947262-4.135408 0.608148-7.05452 1.216296-8.878964 1.702815-2.310963 0.729778-5.594964 1.946074-9.608742 3.40563-0.486519-3.162371-1.581185-7.541038-3.162371-13.136002l-81.370234 22.623114 14.109039 50.719563c1.337926 4.257038 2.797482 6.81126 4.500297 7.662668 1.946074 0.729778 4.135408 0.729778 6.689631 0L410.053241 602.066754c6.689631-1.824445 10.946668-4.013778 12.527853-6.203112 1.094667-1.946074 1.581185-4.986816 1.459556-9.487113-0.364889-5.351704-1.094667-10.581779-2.067704-15.811854 4.013778 2.067704 7.05452 3.40563 9.000594 3.892149 2.189334 0.608148 5.838223 0.973037 11.189928 1.094667 0 6.324742-0.12163 11.311557-0.24326 15.082076-0.364889 3.52726-0.973037 6.568001-1.702815 9.122223-1.581185 4.135408-3.52726 7.05452-6.081482 8.878965-2.675852 1.824445-6.081482 3.52726-10.21689 5.108445l-83.924457 23.596151c-10.581779 2.919112-18.001188 3.648889-22.258226 2.189334-1.581185-0.729778-2.675852-1.581185-3.527259-2.919111-0.973037-1.337926-1.702815-3.040741-2.310964-5.108446L292.072483 561.564081c-0.729778-2.189334-2.919112-8.635705-6.689631-19.582373 4.257038-0.851408 7.176149-1.459556 8.878965-1.946074 1.946074-0.486519 4.743556-1.459556 8.392445-2.919112 0 0.364889 0 0.729778 0.12163 1.094667 0.243259 1.581185 1.216296 5.716593 3.162371 12.649483l81.370234-22.623114-10.825039-38.678228-85.262383 23.839411zM439.122726 460.003326c5.473334-4.013778 9.487112-8.392446 12.162965-13.379261l33.204894 26.515263c-5.473334 4.013778-9.852001 9.122224-12.892743 15.203706-7.05452-7.905927-10.581779-12.041335-10.703409-12.406224-9.243853-7.05452-14.960447-11.311557-17.27141-12.892743-1.459556-0.973037-3.040741-1.946074-4.500297-3.040741z m24.690819 59.720157c-3.892149 1.094667-8.514075 2.675852-13.74415 4.986815-0.608148-3.770519-1.094667-6.568001-1.581186-8.270816-0.486519-1.094667-1.337926-3.648889-2.919111-7.662668 5.594964-0.973037 10.33852-1.946074 14.109039-3.040741l15.568595-4.378667c3.040741-0.973037 6.93289-2.310963 11.554816-4.135408 0.729778 4.378667 1.946074 9.730372 3.770519 16.298373l13.136002 47.070673c5.351704 1.459556 9.608742 2.554223 12.892743 3.284001 3.284 0.729778 6.203112 1.216296 8.878964 1.581185 6.81126 0.851408 13.136002 1.094667 19.095855 0.973037 8.878964-0.364889 20.312151-2.554223 34.42119-6.446371 7.784297-2.310963 15.568595-4.743556 23.474522-7.297779 7.784297-2.675852 14.109039-4.865186 19.095854-6.81126l7.784298-3.284001c-1.459556 6.81126-2.067704 10.946668-2.067704 12.406224-0.243259 2.067704 0 4.743556 0.973037 8.270816-4.135408 0.973037-13.62252 3.40563-28.339708 7.541038-24.325929 6.689631-41.597339 10.46015-51.6926 11.433187-13.500891 1.094667-27.001782-0.608148-40.624302-5.108445-3.040741-1.094667-5.351704-1.459556-7.05452-0.973037-2.189334 0.729778-4.378667 3.648889-6.568001 8.878964l-6.324741 17.27141c-3.040741-2.432593-5.351704-4.013778-7.05452-4.743556-1.702815-0.729778-4.986816-1.581185-9.730372-2.432593 0.486519-1.094667 4.378667-7.662668 11.676446-19.704003 0.608148-0.851408 1.337926-1.824445 2.067704-3.162371 1.702815-2.554223 2.919112-4.743556 3.52726-6.568001L474.516954 516.682741l-10.703409 3.040742z m43.908302-43.056896l-14.230668 4.743557c-0.608148-3.892149-1.094667-6.568001-1.459556-8.027557-0.364889-0.851408-1.337926-3.40563-2.797482-7.541038l25.663856-6.446371 37.583561-10.46015-2.919112-10.46015c-2.067704-7.419408-4.743556-15.446965-7.905927-24.2043 4.378667-0.851408 7.662668-1.581185 9.730372-2.189333 2.310963-0.608148 4.865186-1.581185 7.541038-2.675852 2.067704 9.243853 4.135408 17.514669 6.081482 24.690818l2.919112 10.46015 7.176149-1.946075c6.324742-1.946074 13.379261-4.135408 21.163559-6.81126 0.729778 3.770519 1.216296 6.324742 1.581185 7.662668 0.973037 2.675852 1.824445 5.351704 2.675852 8.149186-1.094667 0.12163-1.946074 0.364889-2.797482 0.608148-4.865186 0.851408-13.500891 3.040741-25.907114 6.446372l19.339113 69.450528c1.337926 5.351704 1.337926 9.243853 0 11.433187-0.973037 1.702815-4.621927 4.500297-11.068297 8.027557-3.040741 1.946074-7.176149 4.257038-12.284595 6.81126-2.675852-7.05452-6.689631-12.892743-12.162965-17.636299 1.581185 0 2.797482 0 3.405631-0.243259-0.243259 0 0.851408-0.243259 3.40563-0.608148 0.243259-0.12163 0.486519-0.12163 0.851407-0.12163 2.067704-0.243259 5.716593-0.973037 10.946668-2.432593 0.608148-1.216296 0.608148-3.040741 0-5.473334l-18.001187-64.828602-48.53023 13.62252z m6.324742 16.906521c6.324742-2.554223 11.189928-5.959853 14.595558-9.973631l23.474522 30.407412c-5.594964 2.675852-10.33852 6.689631-14.352299 11.919706-0.973037-1.702815-1.702815-3.284-2.189333-4.743557-0.364889-1.459556-2.432593-4.743556-6.081483-9.730371-2.432593-3.40563-5.594964-7.297779-9.608742-11.919706l-5.838223-5.959853zM651.001572 510.358c-4.743556 1.581185-9.973631 3.40563-15.811854 5.351704-0.486519-3.648889-0.973037-6.203112-1.337926-7.541038-0.486519-1.459556-1.459556-3.892149-2.797482-7.176149 6.203112-1.094667 11.554816-2.310963 16.176743-3.52726l4.257037-1.216296-18.974225-68.234232-2.797481 0.729777c-2.797482 0.729778-6.93289 2.310963-12.527854 4.621927-0.486519-2.919112-0.973037-5.230075-1.337926-7.054519-0.608148-2.067704-1.459556-4.378667-2.554223-7.05452 5.108445-0.851408 9.487112-1.702815 13.257632-2.797482l2.554222-0.729778-1.337926-4.621926c-1.581185-4.986816-3.52726-10.46015-5.716593-16.663262 3.52726-0.486519 6.203112-0.973037 7.905927-1.459556 1.702815-0.608148 4.135408-1.581185 7.541038-2.797482 0.973037 6.324742 2.310963 12.162965 3.648889 17.27141l1.337927 4.621927 27.974818-7.784298c-1.946074-6.689631-4.257038-13.86578-6.81126-21.406818 3.52726-0.486519 6.203112-0.973037 7.905927-1.459555 1.702815-0.608148 4.135408-1.581185 7.541038-2.797482 2.432593 11.068298 4.257038 18.366077 5.108446 21.771707l3.040741-0.851408c2.919112-0.973037 6.203112-2.189334 9.852001-3.648889 0.608148 3.40563 1.094667 5.838223 1.459556 7.176149 0.729778 1.824445 1.581185 4.135408 2.432593 6.93289-4.743556 0.608148-8.149186 1.216296-10.21689 1.702815l-3.284001 0.851407 18.974225 68.234232c3.892149-1.216296 8.027557-2.675852 12.406224-4.378667 0.486519 3.648889 0.973037 6.203112 1.337926 7.541038 0.486519 1.459556 1.459556 3.892149 2.797482 7.17615-4.378667 0.608148-7.905927 1.337926-10.703409 2.067704l-61.301342 17.14978z m-4.013778 30.772301c5.716593-7.297779 10.095261-15.568595 13.014372-24.812449 0.608148-2.189334 1.337926-4.257038 1.946074-6.324741 4.257038 1.946074 9.973631 2.919112 17.14978 3.162371-1.824445 2.797482-3.52726 5.594964-4.986815 8.392445L659.880536 550.982302c-2.675852-1.824445-4.865186-2.919112-6.446371-3.40563-1.459556-0.486519-4.865186-1.094667-10.216891-1.702815 1.094667-1.581185 2.310963-3.284 3.77052-4.743556z m30.89393-109.953202l-4.135408-14.717187-27.974819 7.784298 4.135408 14.717187 27.974819-7.784298z m7.419408 26.880152l-4.257037-15.082076-27.974819 7.784298 4.257038 15.082076 27.974818-7.784298z m7.419409 26.636893l-4.013778-14.595557-27.974819 7.784297 4.013778 14.595558 27.974819-7.784298z m-5.351705 26.880152c3.52726-3.284 6.324742-7.176149 8.514076-11.433187l24.690818 13.744151c-3.770519 3.892149-5.838223 6.324742-6.446371 7.297778-0.729778 0.851408-1.702815 2.554223-2.797482 4.986816-1.337926-1.094667-2.432593-2.189334-3.40563-3.162371-2.189334-1.824445-7.05452-4.743556-14.595558-8.635705-2.189334-0.729778-4.135408-1.824445-5.959853-2.797482z m28.339708 16.298373c3.648889-6.568001 6.081482-12.892743 7.541038-18.852595 1.824445-9.608742 2.189334-20.312151 0.851408-32.231857-0.729778-7.541038-2.067704-15.082076-4.135408-22.623114-0.364889-1.094667-0.486519-2.189334-0.608148-2.919112l-8.149187-30.650671-12.162964-39.043117c6.081482-1.094667 11.433187-2.189334 15.811854-3.527259l27.974819-7.784298c4.865186-1.459556 10.095261-3.284 15.568594-5.230075l7.662668 31.502079 28.947856 104.601497c1.216296 4.621927 1.459556 7.905927 0.851408 9.852001-0.851408 2.310963-3.648889 5.108445-8.392446 8.270816-6.81126 3.892149-11.798076 6.568001-15.082076 8.270816-3.40563-6.81126-7.784297-12.649483-13.136002-17.39304 6.324742-0.364889 11.919705-1.337926 16.784891-2.675852 2.067704-0.608148 3.284-1.459556 3.892149-2.675852 0.243259-0.973037-0.12163-3.040741-0.973037-6.203112l-8.757335-31.502079-31.502078 8.757335c0.243259 4.986816 0.608148 12.284594 0.973037 21.893336-0.608148 8.027557-1.459556 14.838817-2.432593 20.312152-0.729778 3.52726-1.946074 7.662668-3.64889 12.284594-0.973037 2.432593-1.702815 4.986816-2.554222 7.541038-3.284-1.702815-5.594964-2.554223-6.81126-2.675852-1.216296-0.243259-5.108445-0.608148-11.919706-0.973037 0.851408-2.310963 2.067704-4.257038 3.40563-6.324742z m39.043117-115.669795l-7.784297-28.096448-28.582968 8.027557 7.784298 28.096448 28.582967-8.027557z m11.433187 41.232451l-7.905927-28.461338-28.826227 8.027557 6.93289 28.704597 29.799264-8.270816z" fill="#4D4D4D" p-id="5005"></path></svg>