<?xml version="1.0" standalone="no"?><!DOCTYPE svg PUBLIC "-//W3C//DTD SVG 1.1//EN" "http://www.w3.org/Graphics/SVG/1.1/DTD/svg11.dtd"><svg t="1525167706832" class="icon" style="" viewBox="0 0 1024 1024" version="1.1" xmlns="http://www.w3.org/2000/svg" p-id="1303" xmlns:xlink="http://www.w3.org/1999/xlink" width="200" height="200"><defs><style type="text/css"></style></defs><path d="M169.659563 205.53412 62.329069 606.037746l790.698466 211.873502 107.330494-400.512836L169.659563 205.53412zM834.209958 782.737144l-737.00559-197.472514 92.414783-344.856235 737.00559 197.4807L834.209958 782.737144z" p-id="1304" fill="#d81e06"></path><path d="M869.86674 531.102256l-12.819697-3.436194 6.238135-23.273136 12.819697 3.436194-6.238135 23.273136Z" p-id="1305" fill="#d81e06"></path><path d="M865.993848 460.208427 862.230128 474.218512 870.768595 476.512764 868.302427 485.760382 881.111151 489.196645 887.342062 465.924615Z" p-id="1306" fill="#d81e06"></path><path d="M848.904635 455.631178 827.541071 449.900663 823.773258 463.910749 845.141938 469.642287Z" p-id="1307" fill="#d81e06"></path><path d="M269.744026 301.477262 248.376369 295.762097 244.627998 309.724087 265.994632 315.440275Z" p-id="1308" fill="#d81e06"></path><path d="M219.04432 302.866912 227.538785 305.132512 231.291249 291.185872 209.924615 285.453311 203.694727 308.724317 216.561779 312.177975Z" p-id="1309" fill="#d81e06"></path><path d="M192.462918 350.614379 205.330994 354.049618 211.580325 330.778612 198.708156 327.34235Z" p-id="1310" fill="#d81e06"></path><path d="M148.886447 516.793166 161.724847 520.229428 167.940408 496.957399 155.135778 493.53751Z" p-id="1311" fill="#d81e06"></path><path d="M156.728042 538.847461 143.920342 535.411199 137.675104 558.666856 159.037644 564.397371 162.787038 550.373982 154.261874 548.093033Z" p-id="1312" fill="#d81e06"></path><path d="M176.126858 568.974619 197.489398 574.690808 201.241862 560.681746 179.875229 554.950208Z" p-id="1313" fill="#d81e06"></path><path d="M755.287467 723.113185 776.655124 728.820164 780.388145 714.880687 759.035838 709.150172Z" p-id="1314" fill="#d81e06"></path><path d="M805.96773 721.722512 797.490661 719.459982 793.739221 733.412762 815.105854 739.128951 821.322439 715.868177 808.454364 712.429869Z" p-id="1315" fill="#d81e06"></path><path d="M813.450145 693.812859 826.323337 697.264471 832.553225 673.992441 819.686173 670.541853Z" p-id="1316" fill="#d81e06"></path><path d="M738.826564 427.190429 718.835254 421.833421 715.086883 435.796434 735.093543 441.154465Z" p-id="1317" fill="#d81e06"></path><path d="M774.611581 436.778808 754.599805 431.408497 750.854505 445.370487 770.876514 450.742844Z" p-id="1318" fill="#d81e06"></path><path d="M810.482557 446.401979 790.49534 441.028599 786.742876 454.992635 806.753629 460.34862Z" p-id="1319" fill="#d81e06"></path><path d="M631.028419 398.312728 611.020736 392.939347 607.288738 406.90236 627.280048 412.259368Z" p-id="1320" fill="#d81e06"></path><path d="M666.793994 407.886781 646.786311 402.52875 643.05636 416.492786 663.059949 421.849794Z" p-id="1321" fill="#d81e06"></path><path d="M702.685435 417.506882 682.677752 412.148851 678.944731 426.097538 698.955484 431.469895Z" p-id="1322" fill="#d81e06"></path><path d="M523.230274 369.418654 503.204172 364.061646 499.475244 378.00931 519.48088 383.381667Z" p-id="1323" fill="#d81e06"></path><path d="M558.996872 379.00908 538.988166 373.651049 535.254122 387.597689 555.260781 392.97107Z" p-id="1324" fill="#d81e06"></path><path d="M594.888314 388.629181 574.864258 383.256824 571.131237 397.219837 591.13892 402.575822Z" p-id="1325" fill="#d81e06"></path><path d="M415.433152 340.53993 395.40705 335.166549 391.662773 349.130585 411.684782 354.48657Z" p-id="1326" fill="#d81e06"></path><path d="M451.197704 350.113983 431.191044 344.757998 427.457 358.719988 447.44831 364.076996Z" p-id="1327" fill="#d81e06"></path><path d="M487.089146 359.734084 467.067136 354.3781 463.333092 368.325763 483.340775 373.697097Z" p-id="1328" fill="#d81e06"></path><path d="M307.615565 311.644833 287.609928 306.289871 283.860535 320.250838 303.882544 325.608869Z" p-id="1329" fill="#d81e06"></path><path d="M343.399559 321.235258 323.37755 315.877227 319.643506 329.826937 339.651188 335.197248Z" p-id="1330" fill="#d81e06"></path><path d="M379.291001 330.856383 359.264898 325.483003 355.534947 339.447039 375.54263 344.802Z" p-id="1331" fill="#d81e06"></path><path d="M166.565085 450.930109 160.457993 473.687416 173.282067 477.122655 179.373809 454.366372Z" p-id="1332" fill="#d81e06"></path><path d="M190.276113 413.71144 177.453063 410.277224 171.345971 433.015088 184.183348 436.452373Z" p-id="1333" fill="#d81e06"></path><path d="M201.208093 372.916315 188.385043 369.482099 182.277952 392.220986 195.101002 395.657248Z" p-id="1334" fill="#d81e06"></path><path d="M286.188556 597.400019 306.196239 602.759073 309.94461 588.812433 289.9226 583.438029Z" p-id="1335" fill="#d81e06"></path><path d="M250.406608 587.810616 270.431687 593.183997 274.175965 579.222007 254.154979 573.862953Z" p-id="1336" fill="#d81e06"></path><path d="M214.532563 578.204841 234.540246 583.561849 238.288616 569.600883 218.262514 564.243875Z" p-id="1337" fill="#d81e06"></path><path d="M394.002051 626.296139 413.993361 631.651101 417.742754 617.689111 397.736095 612.33108Z" p-id="1338" fill="#d81e06"></path><path d="M358.219079 616.703667 378.229832 622.061698 381.97411 608.116081 361.9521 602.740654Z" p-id="1339" fill="#d81e06"></path><path d="M322.330708 607.083565 342.338391 612.455923 346.086761 598.493933 326.060659 593.136925Z" p-id="1340" fill="#d81e06"></path><path d="M501.799172 655.171794 521.825274 660.547221 525.540899 646.582161 505.53424 641.209804Z" p-id="1341" fill="#d81e06"></path><path d="M466.035644 645.584438 486.042303 650.956795 489.776348 636.993782 469.769688 631.636774Z" p-id="1342" fill="#d81e06"></path><path d="M430.144202 635.978662 450.150862 641.333624 453.884906 627.371634 433.878247 622.015649Z" p-id="1343" fill="#d81e06"></path><path d="M609.597317 684.066891 629.624443 689.422875 633.354394 675.461909 613.349781 670.104901Z" p-id="1344" fill="#d81e06"></path><path d="M573.834812 674.477488 593.826122 679.83552 597.575516 665.871483 577.56681 660.515498Z" p-id="1345" fill="#d81e06"></path><path d="M537.941324 664.85841 557.965379 670.230768 561.6984 656.265708 541.690718 650.910747Z" p-id="1346" fill="#d81e06"></path><path d="M717.395462 712.946638 737.421564 718.3016 741.151515 704.355983 721.147926 698.981578Z" p-id="1347" fill="#d81e06"></path><path d="M681.631934 703.356212 701.652919 708.72857 705.373661 694.76658 685.380304 689.408549Z" p-id="1348" fill="#d81e06"></path><path d="M645.739469 693.749414 665.748175 699.109492 669.481196 685.143409 649.487839 679.787424Z" p-id="1349" fill="#d81e06"></path><path d="M845.657684 570.225099 858.466408 573.661362 864.554056 550.919405 851.748403 547.484166Z" p-id="1350" fill="#d81e06"></path><path d="M834.75538 610.880031 847.564104 614.31527 853.671195 591.576383 840.848145 588.138074Z" p-id="1351" fill="#d81e06"></path><path d="M836.674839 655.127969l-12.822662-3.435661 6.092982-22.740382 12.822662 3.435661-6.092982 22.740382Z" p-id="1352" fill="#d81e06"></path><path d="M480.746694 574.816674c-1.779529 1.890047-4.1536 2.529613-7.214309 1.701758l-22.600741-6.04467c-4.91801-1.328251-6.573719-4.684696-5.201465-9.775644l10.778484-40.279379 48.103578 12.883425 3.13848-11.728112-148.029428-39.669488-3.139503 11.728112 47.074132 12.619412-0.314155 1.187035c-4.058432 13.120832-10.495028 22.8668-19.490913 29.207206-9.621125 5.982248-24.208355 8.809643-44.013423 8.606005l4.062526 12.745279c20.425192-0.171915 36.153408-3.77907 47.119157-10.68434 11.231809-7.91732 19.413142-20.11513 24.38027-36.640502l0.314155-1.186012 28.565593 7.652284-11.481496 42.827411c-2.997264 11.214413 0.549515 18.367323 11.089569 21.178345l28.707832 7.699356c5.777587 1.546216 10.323113 0.937348 13.869892-1.390673 3.965312-2.576685 8.68173-12.057617 14.08581-28.096918l-10.55745-6.841825C485.840712 565.256948 482.77591 572.627822 480.746694 574.816674z" p-id="1353" fill="#d81e06"></path><path d="M443.719382 436.280458l-65.273632-17.477047-10.180873 38.060851 12.401448 3.326768 6.997368-26.176173 119.323643 31.971156-7.030114 26.176173 12.419867 3.327792 10.196223-38.078247-65.096601-17.429974c-0.221034-7.355525-0.825808-13.885242-1.577938-19.912515l-14.415314-1.313925C442.609095 424.14507 443.232289 429.969729 443.719382 436.280458z" p-id="1354" fill="#d81e06"></path><path d="M486.277664 494.319316 489.462193 482.434637 394.28653 456.927707 391.097908 468.828758Z" p-id="1355" fill="#d81e06"></path><path d="M674.727687 539.362184l-9.762341-7.732102c-10.134825 16.774035-21.224394 30.940686-33.361829 42.249243-0.186242-4.045129-0.324388-8.278547-0.201591-12.808724 0.216941-13.05534 2.467191-30.29805 6.919597-51.696406l52.336996 14.025435 3.15383-11.713786-20.738323-5.561669 9.917884-5.731538c-4.093225-7.824199-9.387811-15.977903-15.899108-24.286126l-9.826809 5.372358c6.903224 8.965186 12.012591 17.070794 15.462157 24.551162l-31.765471-8.511861c1.841951-8.246825 3.994987-16.9613 6.540973-26.488281l-12.573363-3.357468c-2.467191 9.1678-4.620227 17.882276-6.5553 26.473955l-70.191642-18.803251-15.166421 56.583716c-7.915273 27.566846-19.318998 47.6523-34.392298 60.381206l7.124258 10.824533c17.492396-14.980179 30.845519-37.640272 39.684838-67.879993l1.359974-5.089925 29.40982 7.871271c-5.359055 18.60166-9.151427 30.706349-11.715833 36.216853-2.295276 4.484128-5.355985 6.389524-9.136078 5.563716-4.592598-1.236154-10.150174-2.907213-16.694217-5.0142l0.781806 12.041244c5.340635 1.797949 10.17985 3.469008 14.272052 4.561899 8.593725 1.935072 14.854313-0.38988 19.025309-7.106862 4.437056-7.746428 10.761088-25.90909 18.803251-54.537104l-41.636283-11.153014 7.557116-28.206412 58.291614 15.617699c-4.343935 21.598924-6.749728 40.093137-6.829546 55.368028-0.078795 7.807826 0.298805 15.196097 0.983397 22.11467-15.679098 11.651364-33.126468 18.992563-52.166103 22.083971l4.063549 12.025894c17.881253-2.858094 34.594913-9.494235 50.230008-20.239973 1.137916 5.949502 2.746554 11.478426 4.715395 16.383132 5.434779 12.385075 11.713786 19.539009 18.833951 21.444405 7.653307 2.044566 16.492626-7.7935 26.615171-29.300326l-9.402137-9.075703c-7.230682 16.822131-12.497639 24.88169-15.587 24.226774-3.405563-0.907673-6.904247-6.217608-10.324136-15.869433-1.671059-4.63967-2.952238-10.088776-3.875261-16.165168C647.989719 576.643276 661.924079 559.963385 674.727687 539.362184z" p-id="1356" fill="#d81e06"></path></svg>