<?xml version="1.0" encoding="utf-8"?>
<!-- Generator: Adobe Illustrator 21.1.0, SVG Export Plug-In . SVG Version: 6.00 Build 0)  -->
<svg version="1.1" id="圖層_1" xmlns="http://www.w3.org/2000/svg" xmlns:xlink="http://www.w3.org/1999/xlink" x="0px" y="0px"
	 width="254.7px" height="62px" viewBox="0 0 254.7 62" style="enable-background:new 0 0 254.7 62;" xml:space="preserve">
<style type="text/css">
	.st0{fill:#FBB03B;}
	.st1{fill:#888888;}
</style>
<g>
	<g id="XMLID_632_">
		<path id="XMLID_679_" class="st0" d="M189.7,53.5l-1.9-3.1h1.8l0.7,1.2c0.2,0.4,0.4,0.7,0.6,1.1h0c0.2-0.4,0.3-0.7,0.5-1.1
			l0.5-1.2h1.8l-1.9,3.3l2,3.2H192l-0.7-1.2c-0.2-0.4-0.4-0.8-0.6-1.2h-0.1c-0.2,0.4-0.4,0.8-0.5,1.2l-0.6,1.2h-1.8L189.7,53.5z"/>
		<path id="XMLID_677_" class="st0" d="M194.5,56l2.9-4.3h-2.6v-1.4h4.7v0.9l-2.9,4.3h3v1.4h-5.2V56z"/>
		<path id="XMLID_675_" class="st0" d="M200.9,55.1v-7.5h1.7v7.6c0,0.4,0.2,0.5,0.4,0.5c0.1,0,0.1,0,0.2,0l0.2,1.3
			c-0.2,0.1-0.5,0.2-0.9,0.2C201.3,57.1,200.9,56.3,200.9,55.1z"/>
		<path id="XMLID_672_" class="st0" d="M204.2,53.6c0-2.2,1.5-3.4,3.1-3.4s3.1,1.3,3.1,3.4c0,2.2-1.5,3.4-3.1,3.4
			S204.2,55.8,204.2,53.6z M208.7,53.6c0-1.2-0.5-2-1.4-2s-1.4,0.8-1.4,2c0,1.2,0.5,2,1.4,2S208.7,54.9,208.7,53.6z"/>
		<path id="XMLID_668_" class="st0" d="M211.5,58c0-0.5,0.3-1,0.9-1.4v-0.1c-0.3-0.2-0.6-0.6-0.6-1.1c0-0.5,0.3-0.9,0.7-1.2v0
			c-0.4-0.3-0.9-0.9-0.9-1.7c0-1.5,1.3-2.4,2.6-2.4c0.4,0,0.7,0.1,1,0.2h2.4v1.3h-1.1c0.2,0.2,0.3,0.6,0.3,1c0,1.5-1.1,2.2-2.5,2.2
			c-0.3,0-0.6-0.1-0.8-0.2c-0.2,0.2-0.3,0.3-0.3,0.6c0,0.4,0.3,0.5,1,0.5h1.1c1.6,0,2.4,0.5,2.4,1.6c0,1.3-1.4,2.3-3.6,2.3
			C212.7,59.7,211.5,59.2,211.5,58z M216.1,57.7c0-0.5-0.4-0.6-1.1-0.6h-0.8c-0.4,0-0.7,0-0.9-0.1c-0.3,0.2-0.4,0.5-0.4,0.8
			c0,0.5,0.6,0.9,1.6,0.9C215.5,58.6,216.1,58.2,216.1,57.7z M215.4,52.5c0-0.8-0.4-1.2-1-1.2c-0.6,0-1,0.4-1,1.2
			c0,0.8,0.5,1.2,1,1.2C214.9,53.8,215.4,53.3,215.4,52.5z"/>
		<path id="XMLID_665_" class="st0" d="M218.3,53.6c0-2.2,1.5-3.4,3.1-3.4c1.6,0,3.1,1.3,3.1,3.4c0,2.2-1.5,3.4-3.1,3.4
			C219.8,57.1,218.3,55.8,218.3,53.6z M222.8,53.6c0-1.2-0.5-2-1.4-2c-0.9,0-1.4,0.8-1.4,2c0,1.2,0.5,2,1.4,2
			C222.3,55.6,222.8,54.9,222.8,53.6z"/>
		<path id="XMLID_654_" class="st0" d="M225.8,55.9c0-0.6,0.5-1.1,1.1-1.1c0.6,0,1.1,0.5,1.1,1.1c0,0.6-0.5,1.1-1.1,1.1
			C226.2,57.1,225.8,56.6,225.8,55.9z"/>
		<path id="XMLID_652_" class="st0" d="M229.1,53.6c0-2.2,1.6-3.4,3.3-3.4c0.8,0,1.4,0.3,1.9,0.7l-0.8,1.1c-0.3-0.3-0.6-0.4-1-0.4
			c-1,0-1.7,0.8-1.7,2c0,1.2,0.7,2,1.6,2c0.5,0,0.9-0.2,1.3-0.5l0.7,1.1c-0.6,0.5-1.4,0.8-2.1,0.8C230.5,57.1,229.1,55.8,229.1,53.6
			z"/>
		<path id="XMLID_649_" class="st0" d="M234.9,53.6c0-2.2,1.5-3.4,3.1-3.4c1.6,0,3.1,1.3,3.1,3.4c0,2.2-1.5,3.4-3.1,3.4
			C236.4,57.1,234.9,55.8,234.9,53.6z M239.5,53.6c0-1.2-0.5-2-1.4-2c-0.9,0-1.4,0.8-1.4,2c0,1.2,0.5,2,1.4,2
			C239,55.6,239.5,54.9,239.5,53.6z"/>
		<path id="XMLID_647_" class="st0" d="M242.7,50.3h1.4l0.1,0.9h0c0.5-0.6,1.2-1,2-1c0.9,0,1.5,0.4,1.8,1.1c0.6-0.6,1.2-1.1,2.1-1.1
			c1.4,0,2,1,2,2.6v4.1h-1.7V53c0-1-0.3-1.4-0.9-1.4c-0.4,0-0.8,0.2-1.3,0.7v4.5h-1.7V53c0-1-0.3-1.4-0.9-1.4
			c-0.4,0-0.8,0.2-1.3,0.7v4.5h-1.7V50.3z"/>
	</g>
	<g>
		<path class="st0" d="M57,33.2v-5.3c0-0.8-0.5-1.5-1.3-1.8c-0.1,0-0.2-0.1-0.4-0.1c-0.2,0-0.4-0.1-0.5-0.1l-0.2-0.1l-0.1-0.2
			c-0.1-0.2-0.1-0.4-0.1-0.5V9c0-0.3,0.1-0.7,0.4-0.9C55.8,7,56,5.2,55.3,4c-0.7-1.3-2.3-2-3.8-1.7c-1.2,0.3-2.1,1.1-2.5,2.2
			c-0.4,1.1-0.1,2.4,0.6,3.4c0.3,0.4,0.4,0.7,0.4,1.2v5.3c0,0.1,0,0.2,0,0.3V16l-0.8-0.9C42,6.4,33.1,3.2,22.9,5.6
			c-10.3,2.3-16.9,9-19.7,20l-0.1,0.4l-0.4-0.1c-0.6-0.1-1.3,0-1.8,0.4c-0.5,0.4-0.8,1-0.8,1.5c0,1.9,0,3.7,0,5.6
			c0,0.7,0.3,1.3,0.8,1.6c0.5,0.4,1.2,0.5,1.7,0.3l0.5-0.1l0.1,0.5c1.3,5.9,4.2,10.8,8.7,14.6c4.5,3.8,9.9,5.8,15.9,6
			c5.2,0.2,10.1-1.1,14.3-3.7C48.4,48.7,52.4,43,54,35.7l0.1-0.4l0.4,0.1c0.2,0,0.4,0.1,0.6,0C56.3,35.2,57,34.4,57,33.2z
			 M44.6,44.9c-3.5,4-8.1,6.4-13.4,7.1c-0.9,0.1-1.7,0.2-2.6,0.2c-8.9,0-17.2-6.1-19.9-14.9c-0.6-2-0.9-4.1-0.9-6.5
			c0-0.3,0.1-0.7,0.3-0.8c4.2-5.6,9.8-9.1,16.6-10.3c1.2-0.2,2.4-0.3,3.4-0.4l0.5,0l0,0c9,0.3,15.9,3.8,21,10.5
			c0.2,0.3,0.4,0.7,0.4,1.1C49.9,36.2,48.1,41,44.6,44.9z"/>
		<polygon class="st0" points="34.8,53.8 29.6,38.6 39.6,38.6 22.3,17.5 27.5,32.7 17.5,32.7 		"/>
	</g>
	<g>
		<polygon class="st0" points="140.7,13.7 140.7,44.9 156.4,44.9 156.4,40 145.5,40 145.5,13.7 		"/>
		<path class="st0" d="M183.1,18.3c-3-3-6.8-4.6-11-4.6c-4.3,0-8,1.5-11,4.6c-3.1,3-4.6,6.8-4.6,11c0,4.3,1.5,8,4.6,11
			c3.1,3,6.8,4.6,11,4.6c4.3,0,8-1.5,11-4.6c3-3,4.6-6.7,4.6-11C187.6,25,186.1,21.3,183.1,18.3z M179.6,36.9
			c-2.1,2.1-4.7,3.2-7.6,3.2c-3,0-5.5-1.1-7.6-3.2c-2.1-2.1-3.2-4.7-3.2-7.6c0-3,1.1-5.5,3.2-7.6c2.1-2.1,4.7-3.2,7.6-3.2
			c3,0,5.5,1.1,7.6,3.2c2.1,2.1,3.2,4.7,3.2,7.6C182.8,32.3,181.8,34.8,179.6,36.9z"/>
		<path class="st0" d="M239,13.7c-4.3,0-8,1.5-11,4.6c-3.1,3-4.6,6.8-4.6,11c0,4.3,1.5,8,4.6,11c3.1,3,6.8,4.6,11,4.6
			c4.3,0,8-1.5,11-4.6c3-3,4.6-6.7,4.6-11c0-4.3-1.5-8-4.6-11C247,15.2,243.3,13.7,239,13.7z M246.6,36.9c-2.1,2.1-4.7,3.2-7.6,3.2
			c-3,0-5.5-1.1-7.6-3.2c-2.1-2.1-3.2-4.7-3.2-7.6c0-3,1.1-5.5,3.2-7.6c2.1-2.1,4.7-3.2,7.6-3.2c3,0,5.5,1.1,7.6,3.2
			c2.1,2.1,3.2,4.7,3.2,7.6C249.8,32.3,248.7,34.8,246.6,36.9z"/>
		<g>
			<polygon class="st1" points="91.3,18.3 98.2,41.4 100.7,40.6 93.8,17.5 			"/>
			<polygon class="st1" points="78.7,18.3 71.8,41.4 69.2,40.6 76.2,17.5 			"/>
			<path class="st1" d="M84.3,40.5c0,0.5-0.2,0.9-0.5,1.3c-0.3,0.4-0.7,0.5-1.2,0.5H78v2.6h4.5c1.2,0,2.3-0.4,3.2-1.3
				c0.8-0.9,1.3-1.9,1.3-3.1V13.7h-2.6V40.5z"/>
			<path class="st1" d="M126.8,30.8h-17.5c-2.4,0-3.8,1.4-3.8,3.8v6.5c0,2.4,1.4,3.8,3.8,3.8h17.5c2.4,0,3.8-1.4,3.8-3.8v-6.5
				C130.6,32.2,129.2,30.8,126.8,30.8z M127.9,41.1c0,1-0.3,1.2-1.1,1.2h-17.5c-0.9,0-1.1-0.3-1.1-1.2v-2h19.7V41.1z M108.2,34.7
				c0-0.9,0.3-1.2,1.1-1.2h17.5c0.8,0,1.1,0.2,1.1,1.2v1.9h-19.7V34.7z"/>
			<path class="st1" d="M132.8,15.7c-0.7-0.7-1.6-1.1-2.7-1.1h-5.6c-1.3,0-2.3,0.4-2.9,1.2h-1.2h-7.7h-5l0.8-2h-2.9l-1.9,4.7h6.9
				l0,1.3c0,0.5,0,1.1-0.1,1.6h-7.8v2.6h6.7c-1.2,1.7-3.2,3.1-6,4.1l-0.9,0.3l0.6,2.6l1.2-0.4c3.7-1.3,6.3-3.2,7.8-5.7l7.2,6
				l1.9-1.9l-5.9-5h5.7v2c0,2.4,1.4,3.8,3.8,3.8h5.6c1,0,1.9-0.4,2.7-1.1c0.7-0.8,1.1-1.7,1.1-2.7v-7.4
				C133.9,17.4,133.5,16.5,132.8,15.7z M120.7,21.2H113c0.1-0.5,0.1-1,0.1-1.6l0-1.3h7.6V21.2z M131.3,25.8c0,0.9-0.3,1.2-1.2,1.2
				h-5.6c-0.9,0-1.2-0.3-1.2-1.2v-7.4c0-0.9,0.3-1.2,1.2-1.2h5.6c0.9,0,1.2,0.3,1.2,1.2V25.8z"/>
		</g>
		<path class="st0" d="M205.4,26.9c0,1.6,0,3.2,0,4.8h10.5c-0.4,2-1.4,3.7-2.9,5.2c-2.1,2.1-4.7,3.2-7.6,3.2c-3,0-5.5-1.1-7.6-3.2
			c-2.1-2.1-3.2-4.7-3.2-7.6c0-3,1.1-5.5,3.2-7.6c2.1-2.1,4.7-3.2,7.6-3.2c2.2,0,4.2,0.6,5.9,1.8l3.4-3.4c-2.7-2.1-5.8-3.1-9.4-3.1
			c-4.3,0-8,1.5-11,4.6c-3.1,3-4.6,6.8-4.6,11c0,4.3,1.5,8,4.6,11c3.1,3,6.8,4.6,11,4.6c4.3,0,8-1.5,11-4.6c1.6-1.6,2.7-3.3,3.5-5.2
			c0.2-0.6,1.1-2.8,1.1-5.8c0-1-0.1-1.8-0.2-2.4C215.7,26.9,210.5,26.9,205.4,26.9z"/>
	</g>
</g>
</svg>
